<svg width="842" height="190" viewBox="0 0 842 190" fill="none" xmlns="http://www.w3.org/2000/svg">
<path d="M54.2 149.4C47.1333 149.4 40.5333 148.533 34.4 146.8C28.2667 145.067 22.8 142.667 18 139.6C13.2 136.4 9.2 132.867 6 129C2.93333 125.133 0.933334 121.067 5.66244e-07 116.8L26.8 108.8C28.5333 113.333 31.6 117.267 36 120.6C40.4 123.8 45.9333 125.467 52.6 125.6C59.6667 125.733 65.4 124.2 69.8 121C74.3333 117.8 76.6 113.667 76.6 108.6C76.6 104.2 74.8 100.533 71.2 97.6C67.7333 94.5333 62.9333 92.2 56.8 90.6L38.6 85.8C31.8 84.0667 25.8 81.4667 20.6 78C15.4 74.4 11.3333 70 8.4 64.8C5.46667 59.6 4 53.5333 4 46.6C4 33.4 8.33333 23.1333 17 15.8C25.8 8.33333 38.2 4.6 54.2 4.6C63.1333 4.6 70.9333 5.93333 77.6 8.59999C84.4 11.1333 90.0667 14.8 94.6 19.6C99.1333 24.4 102.6 30.0667 105 36.6L78.4 44.8C76.8 40.2667 73.8667 36.4 69.6 33.2C65.3333 30 59.9333 28.4 53.4 28.4C46.7333 28.4 41.4667 29.9333 37.6 33C33.8667 36.0667 32 40.4 32 46C32 50.4 33.4667 53.8667 36.4 56.4C39.4667 58.9333 43.6 60.8667 48.8 62.2L67.2 66.8C79.2 69.7333 88.5333 75 95.2 82.6C101.867 90.2 105.2 98.6667 105.2 108C105.2 116.267 103.2 123.533 99.2 129.8C95.2 135.933 89.4 140.733 81.8 144.2C74.2 147.667 65 149.4 54.2 149.4ZM125.884 187V47H150.684L152.284 65.4V187H125.884ZM182.484 149.4C174.084 149.4 166.951 147.267 161.084 143C155.351 138.733 150.951 132.667 147.884 124.8C144.818 116.933 143.284 107.667 143.284 97C143.284 86.2 144.818 76.9333 147.884 69.2C150.951 61.3333 155.351 55.2667 161.084 51C166.951 46.7333 174.084 44.6 182.484 44.6C191.684 44.6 199.618 46.7333 206.284 51C213.084 55.2667 218.351 61.3333 222.084 69.2C225.818 76.9333 227.684 86.2 227.684 97C227.684 107.667 225.818 116.933 222.084 124.8C218.351 132.667 213.084 138.733 206.284 143C199.618 147.267 191.684 149.4 182.484 149.4ZM175.684 125.2C180.484 125.2 184.684 124 188.284 121.6C192.018 119.2 194.951 115.867 197.084 111.6C199.218 107.333 200.284 102.467 200.284 97C200.284 91.5333 199.218 86.6667 197.084 82.4C195.084 78.1333 192.218 74.8667 188.484 72.6C184.884 70.2 180.684 69 175.884 69C171.351 69 167.284 70.2 163.684 72.6C160.084 75 157.284 78.3333 155.284 82.6C153.284 86.7333 152.284 91.5333 152.284 97C152.284 102.467 153.284 107.333 155.284 111.6C157.284 115.867 160.018 119.2 163.484 121.6C167.084 124 171.151 125.2 175.684 125.2ZM292.002 149.4C281.868 149.4 272.802 147.2 264.802 142.8C256.935 138.267 250.735 132.067 246.202 124.2C241.802 116.333 239.602 107.267 239.602 97C239.602 86.7333 241.802 77.6667 246.202 69.8C250.602 61.9333 256.735 55.8 264.602 51.4C272.468 46.8667 281.468 44.6 291.602 44.6C301.868 44.6 310.935 46.8667 318.802 51.4C326.668 55.8 332.802 61.9333 337.202 69.8C341.602 77.6667 343.802 86.7333 343.802 97C343.802 107.267 341.602 116.333 337.202 124.2C332.802 132.067 326.668 138.267 318.802 142.8C311.068 147.2 302.135 149.4 292.002 149.4ZM292.002 125C296.935 125 301.268 123.8 305.002 121.4C308.735 119 311.602 115.733 313.602 111.6C315.735 107.333 316.802 102.467 316.802 97C316.802 91.5333 315.735 86.7333 313.602 82.6C311.468 78.3333 308.468 75 304.602 72.6C300.868 70.2 296.535 69 291.602 69C286.802 69 282.468 70.2 278.602 72.6C274.868 75 271.935 78.3333 269.802 82.6C267.668 86.7333 266.602 91.5333 266.602 97C266.602 102.467 267.668 107.333 269.802 111.6C271.935 115.733 274.935 119 278.802 121.4C282.668 123.8 287.068 125 292.002 125ZM402.413 149.4C391.346 149.4 382.946 146.667 377.213 141.2C371.613 135.733 368.813 127.933 368.813 117.8V15.8H395.213V112C395.213 116.267 396.146 119.533 398.013 121.8C399.879 123.933 402.613 125 406.213 125C407.546 125 409.013 124.733 410.613 124.2C412.213 123.533 413.879 122.6 415.613 121.4L424.813 141.2C421.613 143.6 418.013 145.533 414.013 147C410.146 148.6 406.279 149.4 402.413 149.4ZM352.613 69.4V47H420.213V69.4H352.613ZM441.681 147V6.99999H468.081V147H441.681ZM492.5 147V47H518.9V147H492.5ZM505.7 30.8C501.7 30.8 498.167 29.3333 495.1 26.4C492.033 23.3333 490.5 19.7333 490.5 15.6C490.5 11.4667 492.033 7.93333 495.1 4.99999C498.167 1.93333 501.7 0.399992 505.7 0.399992C509.833 0.399992 513.367 1.93333 516.3 4.99999C519.367 7.93333 520.9 11.4667 520.9 15.6C520.9 19.7333 519.367 23.3333 516.3 26.4C513.367 29.3333 509.833 30.8 505.7 30.8ZM588.244 189.6C580.644 189.6 573.91 189.067 568.044 188C562.177 186.933 557.244 185.533 553.244 183.8C549.244 182.067 545.977 180.333 543.444 178.6L553.844 157.4C555.71 158.467 558.177 159.667 561.244 161C564.31 162.467 567.977 163.667 572.244 164.6C576.51 165.667 581.444 166.2 587.044 166.2C592.377 166.2 597.044 165.133 601.044 163C605.177 161 608.377 157.8 610.644 153.4C613.044 149.133 614.244 143.667 614.244 137V47H640.644V136.2C640.644 147.4 638.51 157 634.244 165C629.977 173.133 623.91 179.267 616.044 183.4C608.31 187.533 599.044 189.6 588.244 189.6ZM583.044 144.2C573.844 144.2 565.844 142.2 559.044 138.2C552.377 134.2 547.177 128.6 543.444 121.4C539.71 114.2 537.844 105.667 537.844 95.8C537.844 85.4 539.71 76.4 543.444 68.8C547.177 61.0667 552.377 55.1333 559.044 51C565.844 46.7333 573.844 44.6 583.044 44.6C591.044 44.6 597.977 46.7333 603.844 51C609.71 55.1333 614.244 61.0667 617.444 68.8C620.644 76.5333 622.244 85.7333 622.244 96.4C622.244 106 620.644 114.4 617.444 121.6C614.244 128.8 609.71 134.4 603.844 138.4C597.977 142.267 591.044 144.2 583.044 144.2ZM590.644 122C595.177 122 599.11 120.867 602.444 118.6C605.91 116.2 608.577 113 610.444 109C612.31 104.867 613.244 100.2 613.244 95C613.244 89.6667 612.244 85 610.244 81C608.377 77 605.71 73.8667 602.244 71.6C598.91 69.3333 594.977 68.2 590.444 68.2C585.777 68.2 581.644 69.3333 578.044 71.6C574.444 73.8667 571.644 77 569.644 81C567.644 85 566.577 89.6667 566.444 95C566.577 100.2 567.644 104.867 569.644 109C571.644 113 574.444 116.2 578.044 118.6C581.777 120.867 585.977 122 590.644 122ZM663.561 147V6.99999H689.961V147H663.561ZM729.961 147V95.8H756.361V147H729.961ZM729.961 95.8C729.961 89 729.161 83.7333 727.561 80C725.961 76.2667 723.761 73.6 720.961 72C718.161 70.2667 714.894 69.4 711.161 69.4C704.361 69.2667 699.094 71.3333 695.361 75.6C691.761 79.8667 689.961 86.2 689.961 94.6H681.161C681.161 83.9333 682.694 74.9333 685.761 67.6C688.961 60.1333 693.361 54.4667 698.961 50.6C704.694 46.6 711.361 44.6 718.961 44.6C726.961 44.6 733.694 46.2 739.161 49.4C744.761 52.6 749.028 57.6 751.961 64.4C754.894 71.0667 756.361 79.7333 756.361 90.4V95.8H729.961ZM818.623 149.4C807.557 149.4 799.157 146.667 793.423 141.2C787.823 135.733 785.023 127.933 785.023 117.8V15.8H811.423V112C811.423 116.267 812.357 119.533 814.223 121.8C816.09 123.933 818.823 125 822.423 125C823.757 125 825.223 124.733 826.823 124.2C828.423 123.533 830.09 122.6 831.823 121.4L841.023 141.2C837.823 143.6 834.223 145.533 830.223 147C826.357 148.6 822.49 149.4 818.623 149.4ZM768.823 69.4V47H836.423V69.4H768.823Z" fill="#8E8E8E"/>
</svg>
